<svg width="14" height="14" viewBox="0 0 14 14" fill="none" xmlns="http://www.w3.org/2000/svg">
<path fill-rule="evenodd" clip-rule="evenodd" d="M12.9253 0.408026C13.4693 0.95206 13.4693 1.83411 12.9253 2.37815L8.63778 6.66568L12.9253 10.9552C13.4693 11.4992 13.4693 12.3813 12.9253 12.9253C12.3813 13.4693 11.4992 13.4693 10.9552 12.9253L6.66765 8.63581L2.37815 12.9253C1.83411 13.4693 0.95206 13.4693 0.408026 12.9253C-0.136009 12.3813 -0.136009 11.4992 0.408026 10.9552L4.69753 6.66568L0.408026 2.37815C-0.136009 1.83411 -0.136009 0.95206 0.408026 0.408026C0.95206 -0.136009 1.83411 -0.136009 2.37815 0.408026L6.66765 4.69556L10.9552 0.408026C11.4992 -0.136009 12.3813 -0.136009 12.9253 0.408026Z" fill="#7E84A3"/>
</svg>
